<svg xmlns="http://www.w3.org/2000/svg" width="24" height="24" viewBox="0 0 24 24">
  <g id="vuesax_bold_lovely" data-name="vuesax/bold/lovely" transform="translate(-748 -252)">
    <g id="lovely">
      <path id="Vector" d="M0,0H24V24H0Z" transform="translate(748 252)" fill="none" opacity="0"/>
      <path id="Vector-2" data-name="Vector" d="M9,0A3.466,3.466,0,0,0,6.23,1.39,3.458,3.458,0,0,0,0,3.48,6.788,6.788,0,0,0,.32,5.54a9.39,9.39,0,0,0,5.52,5.49,1.438,1.438,0,0,0,.77,0,9.361,9.361,0,0,0,5.52-5.49,6.538,6.538,0,0,0,.32-2.06A3.457,3.457,0,0,0,9,0Z" transform="translate(757.8 261.91)" fill="#292d32"/>
      <path id="Vector-3" data-name="Vector" d="M18.75,5.24a.348.348,0,0,1-.45.32,4.81,4.81,0,0,0-3.95.74.615.615,0,0,1-.73,0,4.65,4.65,0,0,0-2.76-.9,4.7,4.7,0,0,0-4.68,4.71,9.063,9.063,0,0,0,2.71,6.34c.07.07.01.19-.08.15C6.08,15.67,0,11.81,0,5.24A5.208,5.208,0,0,1,9.38,2.09a5.2,5.2,0,0,1,9.37,3.15Z" transform="translate(750 255.1)" fill="#292d32"/>
    </g>
  </g>
</svg>
